<?xml version="1.0" encoding="UTF-8" standalone="no"?>
<!-- Created with Inkscape (http://www.inkscape.org/) -->

<svg
   width="32"
   height="32"
   viewBox="0 0 32 32"
   version="1.1"
   id="svg1"
   xml:space="preserve"
   xmlns:xlink="http://www.w3.org/1999/xlink"
   xmlns="http://www.w3.org/2000/svg"
   xmlns:svg="http://www.w3.org/2000/svg"><defs
     id="defs1"><linearGradient
       id="linearGradient16"><stop
         style="stop-color:#008000;stop-opacity:1;"
         offset="0.54297894"
         id="stop16" /><stop
         style="stop-color:#00fb00;stop-opacity:0.80933851;"
         offset="0.91541004"
         id="stop18" /></linearGradient><linearGradient
       id="linearGradient2"><stop
         style="stop-color:#00ae00;stop-opacity:1;"
         offset="0.69607842"
         id="stop2" /><stop
         style="stop-color:#00ae00;stop-opacity:0;"
         offset="1"
         id="stop3" /></linearGradient><linearGradient
       xlink:href="#linearGradient2"
       id="linearGradient3"
       x1="6.1433458"
       y1="25.547338"
       x2="26.175953"
       y2="6.8666301"
       gradientUnits="userSpaceOnUse" /><linearGradient
       xlink:href="#linearGradient16"
       id="linearGradient17"
       x1="7.295383"
       y1="26.753996"
       x2="25.028042"
       y2="5.621037"
       gradientUnits="userSpaceOnUse" /><filter
       style="color-interpolation-filters:sRGB"
       id="filter19"
       x="-0.039003178"
       y="-0.039352044"
       width="1.0784584"
       height="1.0748648"><feGaussianBlur
         stdDeviation="0.32522648"
         id="feGaussianBlur19" /></filter><linearGradient
       xlink:href="#linearGradient16"
       id="linearGradient4"
       gradientUnits="userSpaceOnUse"
       x1="7.295383"
       y1="26.753996"
       x2="25.028042"
       y2="5.621037" /></defs><g
     id="layer1"
     style="fill:url(#linearGradient3);fill-opacity:1"><path
       style="mix-blend-mode:normal;fill:url(#linearGradient4);fill-opacity:1;stroke:#90ee90;stroke-width:0.6;stroke-dasharray:none;stroke-opacity:1;filter:url(#filter19)"
       d="M 16.342911,0.99353163 C 2.7815245,15.074069 1.0773602,18.539187 3.2521685,23.495728 c 0.8225995,1.874761 2.5869212,3.269154 5.6629354,3.140987 0,0 4.4286931,-0.03536 6.1461341,-3.316446 -0.04606,3.306136 -0.383194,6.799957 -3.921918,8.100172 h 10.330282 c 0,0 -3.639952,-1.40984 -3.691219,-4.280788 l -0.281964,-3.819384 c 0,0 3.281081,3.050382 6.126394,3.050382 0,0 3.998819,0.563937 5.716261,-3.716851 C 32.537636,16.203945 19.96988,4.2518944 16.342911,0.99353163 Z"
       id="path19" /><path
       style="mix-blend-mode:normal;fill:url(#linearGradient17);fill-opacity:1;stroke:#000000;stroke-width:0.2;stroke-dasharray:none;stroke-opacity:1"
       d="M 16.342911,0.99353163 C 2.7815245,15.074069 1.0773602,18.539187 3.2521685,23.495728 c 0.8225995,1.874761 2.5869212,3.269154 5.6629354,3.140987 0,0 4.4286931,-0.03536 6.1461341,-3.316446 -0.04606,3.306136 -0.383194,6.799957 -3.921918,8.100172 h 10.330282 c 0,0 -3.639952,-1.40984 -3.691219,-4.280788 l -0.281964,-3.819384 c 0,0 3.281081,3.050382 6.126394,3.050382 0,0 3.998819,0.563937 5.716261,-3.716851 C 32.537636,16.203945 19.96988,4.2518944 16.342911,0.99353163 Z"
       id="path1" /></g></svg>
